<svg xmlns="http://www.w3.org/2000/svg" width="116" height="34" viewBox="0 0 116 34" fill="none"><path fill-rule="evenodd" clip-rule="evenodd" d="M0.07066 15.3212C0.07066 15.3501 0.07066 15.3822 0.07066 15.4144C0.0224901 15.8961 1.08632e-05 16.3778 1.08632e-05 16.8755C-0.00450591 20.8475 1.39963 24.6923 3.96278 27.7266C4.00774 27.7812 4.04949 27.8325 4.09766 27.8839C5.54748 29.574 7.31796 30.9599 9.30672 31.9614C11.2955 32.9629 13.4631 33.5603 15.6841 33.7189C15.7899 33.7401 15.8974 33.7508 16.0053 33.751H16.1433C16.5266 33.7143 16.8825 33.536 17.1414 33.251C17.4003 32.9659 17.5436 32.5946 17.5435 32.2096C17.5442 31.8591 17.4258 31.5187 17.2075 31.2444C16.9892 30.9701 16.6842 30.7782 16.3424 30.7003L16.214 30.6746C16.1637 30.6712 16.1133 30.6712 16.0631 30.6746H15.9828C14.151 30.5548 12.3617 30.0701 10.7199 29.249C9.07818 28.4278 7.61713 27.2868 6.42266 25.8929C6.37971 25.829 6.3302 25.7699 6.27494 25.7163C5.00115 24.1921 4.07119 22.411 3.54852 20.4947C3.15081 20.4339 2.78263 20.2485 2.49698 19.9651C2.21133 19.6818 2.02294 19.3151 1.95892 18.9179C1.94596 18.8211 1.94059 18.7234 1.94286 18.6257C1.94244 18.3749 1.99161 18.1266 2.08757 17.8949C2.18352 17.6633 2.32435 17.4529 2.50194 17.2759C2.67954 17.0989 2.8904 16.9588 3.12238 16.8636C3.35435 16.7684 3.60286 16.7201 3.8536 16.7214C4.35557 16.7256 4.8355 16.9282 5.18865 17.285C5.5418 17.6417 5.73951 18.1237 5.73865 18.6257C5.7349 18.9497 5.64822 19.2674 5.48689 19.5485C5.32555 19.8296 5.09493 20.0647 4.817 20.2313C5.55289 22.8637 7.12974 25.1831 9.30695 26.8356C11.4842 28.4881 14.1422 29.3829 16.8755 29.3836C17.2352 29.3836 17.5916 29.3676 17.9449 29.3354H18.0477C18.1922 29.3352 18.336 29.3147 18.4748 29.2744C18.7956 29.1814 19.0776 28.9868 19.2786 28.7199C19.4795 28.4529 19.5884 28.1281 19.5891 27.794C19.5906 27.4429 19.4724 27.1018 19.2541 26.8269C19.0358 26.5519 18.7303 26.3596 18.3881 26.2815C18.2966 26.2586 18.2029 26.2456 18.1087 26.2429H17.9609H17.8453C17.5253 26.2761 17.2037 26.2933 16.8819 26.2943C15.4626 26.3006 14.0603 25.9843 12.7811 25.3695L12.6398 25.2892C12.3112 25.5458 11.9071 25.6869 11.4901 25.6906C11.0378 25.6893 10.6006 25.5271 10.257 25.2328C9.91334 24.9386 9.68566 24.5317 9.61472 24.0849C9.60085 23.986 9.59334 23.8862 9.59224 23.7863C9.59309 23.2832 9.79331 22.8009 10.1491 22.4452C10.5048 22.0895 10.987 21.8892 11.4901 21.8884C11.9929 21.8892 12.4748 22.0896 12.8301 22.4454C13.1853 22.8012 13.3848 23.2835 13.3848 23.7863C13.3852 23.9279 13.369 24.0691 13.3366 24.207C14.0473 24.552 14.8046 24.7911 15.5846 24.9167C15.712 24.9528 15.8439 24.9711 15.9763 24.9713C16.179 24.9708 16.3797 24.9304 16.5667 24.8524C16.7538 24.7743 16.9236 24.6602 17.0665 24.5164C17.2094 24.3726 17.3225 24.2021 17.3994 24.0145C17.4763 23.827 17.5154 23.6261 17.5146 23.4234C17.5153 23.0729 17.3969 22.7325 17.1786 22.4582C16.9603 22.1839 16.6553 21.9921 16.3135 21.9141C16.2221 21.8912 16.1284 21.8782 16.0342 21.8755C14.8531 21.6752 13.781 21.0633 13.008 20.148C12.2351 19.2328 11.8111 18.0735 11.8113 16.8755C11.8126 15.7242 12.2057 14.6076 12.9259 13.7094C13.6461 12.8112 14.6506 12.1848 15.774 11.9333L17.02 11.8145C18.3369 11.8537 19.5867 12.4039 20.505 13.3485C21.4233 14.2931 21.9379 15.5581 21.9398 16.8755V32.2128C21.9395 32.4887 22.0137 32.7596 22.1544 32.997C22.2951 33.2343 22.4972 33.4294 22.7394 33.5616C22.9652 33.6872 23.2196 33.7524 23.478 33.751C23.7363 33.7515 23.9905 33.6863 24.2166 33.5616C24.4584 33.4292 24.6601 33.234 24.8002 32.9967C24.9404 32.7593 25.0139 32.4885 25.013 32.2128V29.5121V26.6219C25.0439 26.4743 25.1246 26.3417 25.2415 26.2464C25.3584 26.1512 25.5045 26.0989 25.6553 26.0984C25.8058 26.1001 25.9513 26.1528 26.0679 26.2478C26.1846 26.3429 26.2656 26.4748 26.2975 26.6219V30.2089C26.2975 30.616 26.4593 31.0065 26.7471 31.2943C27.035 31.5822 27.4254 31.7439 27.8326 31.7439C28.24 31.7439 28.6307 31.5823 28.9191 31.2945C29.2075 31.0068 29.3699 30.6163 29.3708 30.2089V22.9899V21.6636V20.7002C29.0075 20.5663 28.6939 20.3243 28.4723 20.0068C28.2506 19.6893 28.1316 19.3115 28.1312 18.9243C28.1304 18.6737 28.1791 18.4255 28.2747 18.1938C28.3703 17.9622 28.5109 17.7518 28.6882 17.5747C28.8656 17.3977 29.0762 17.2575 29.308 17.1623C29.5398 17.0671 29.7882 17.0187 30.0387 17.02C30.5418 17.0209 31.0241 17.2211 31.3798 17.5768C31.7356 17.9326 31.9358 18.4148 31.9366 18.9179C31.9361 19.3085 31.8149 19.6894 31.5895 20.0085C31.3642 20.3275 31.0457 20.5691 30.6778 20.7002V27.1228C30.6778 27.5308 30.8399 27.9221 31.1283 28.2105C31.4168 28.499 31.8081 28.6611 32.216 28.6611C32.6237 28.6602 33.0145 28.4979 33.3028 28.2096C33.5911 27.9213 33.7534 27.5305 33.7542 27.1228V16.8755C33.7491 12.4009 31.9691 8.11098 28.8047 4.94722C25.6404 1.78346 21.3502 0.00424976 16.8755 0C12.6702 0.00482908 8.6178 1.57754 5.51018 4.4108C2.40257 7.24406 0.463057 11.1343 0.07066 15.3212ZM13.9564 4.29996C13.9086 4.22595 13.8757 4.14324 13.8598 4.05654C13.8439 3.96985 13.8453 3.88087 13.8638 3.79469C13.8823 3.70851 13.9175 3.62682 13.9676 3.55427C14.0177 3.48173 14.0815 3.41975 14.1555 3.37189L14.2326 3.33014C15.1033 3.15967 15.9883 3.07363 16.8755 3.07324C19.832 3.07691 22.7094 4.02781 25.0859 5.78648C27.4624 7.54515 29.2128 10.019 30.0805 12.8453C30.0871 12.9051 30.0871 12.9654 30.0805 13.0251C30.0805 13.1955 30.0128 13.3588 29.8924 13.4793C29.7719 13.5997 29.6086 13.6674 29.4382 13.6674C29.3125 13.6676 29.1895 13.6308 29.0845 13.5618C28.9794 13.4927 28.897 13.3943 28.8473 13.2788C28.0721 10.7055 26.4896 8.44986 24.3338 6.84512C22.1779 5.24038 19.5631 4.37169 16.8755 4.3674C16.0713 4.36845 15.269 4.44695 14.4799 4.60183C14.3751 4.59594 14.2732 4.56556 14.1823 4.51313C14.0914 4.46071 14.014 4.3877 13.9564 4.29996ZM25.013 16.8755C25.0152 15.545 24.6908 14.2343 24.0681 13.0585C23.4455 11.8827 22.5437 10.8777 21.442 10.1317C21.3447 10.0119 21.2914 9.86224 21.2911 9.70783C21.2911 9.52983 21.3618 9.35911 21.4877 9.23325C21.6135 9.10738 21.7843 9.03667 21.9623 9.03667C22.0473 9.03726 22.1313 9.05472 22.2095 9.08805C23.4745 9.95506 24.5091 11.1174 25.2236 12.4743C25.9382 13.8312 26.3112 15.3419 26.3104 16.8755V18.0284C26.2784 18.1754 26.1975 18.3073 26.0808 18.4024C25.9641 18.4975 25.8186 18.5502 25.6681 18.5518C25.5173 18.5513 25.3712 18.4991 25.2543 18.4038C25.1374 18.3085 25.0568 18.176 25.0259 18.0284L25.013 16.8755ZM3.21133 18.6257C3.21133 18.796 3.279 18.9594 3.39945 19.0798C3.5199 19.2003 3.68326 19.2679 3.8536 19.2679C4.02394 19.2679 4.1873 19.2003 4.30775 19.0798C4.4282 18.9594 4.49586 18.796 4.49586 18.6257C4.49586 18.4553 4.4282 18.292 4.30775 18.1715C4.1873 18.0511 4.02394 17.9834 3.8536 17.9834C3.68326 17.9834 3.5199 18.0511 3.39945 18.1715C3.279 18.292 3.21133 18.4553 3.21133 18.6257ZM29.4093 18.9275C29.4093 19.0979 29.477 19.2612 29.5974 19.3817C29.7179 19.5021 29.8812 19.5698 30.0516 19.5698C30.2219 19.5698 30.3853 19.5021 30.5057 19.3817C30.6262 19.2612 30.6938 19.0979 30.6938 18.9275C30.6938 18.7572 30.6262 18.5938 30.5057 18.4734C30.3853 18.3529 30.2219 18.2853 30.0516 18.2853C29.8812 18.2853 29.7179 18.3529 29.5974 18.4734C29.477 18.5938 29.4093 18.7572 29.4093 18.9275ZM10.8447 23.7831C10.8447 23.9534 10.9123 24.1168 11.0328 24.2372C11.1532 24.3577 11.3166 24.4253 11.4869 24.4253C11.6573 24.4253 11.8206 24.3577 11.9411 24.2372C12.0615 24.1168 12.1292 23.9534 12.1292 23.7831C12.1292 23.6127 12.0615 23.4494 11.9411 23.3289C11.8206 23.2085 11.6573 23.1408 11.4869 23.1408C11.3166 23.1408 11.1532 23.2085 11.0328 23.3289C10.9123 23.4494 10.8447 23.6127 10.8447 23.7831ZM30.6778 30.9218C30.6778 31.1237 30.7176 31.3236 30.7949 31.51C30.8723 31.6965 30.9856 31.8658 31.1285 32.0084C31.2714 32.151 31.441 32.264 31.6276 32.3409C31.8142 32.4179 32.0142 32.4573 32.216 32.4569C32.6231 32.4569 33.0136 32.2951 33.3014 32.0073C33.5893 31.7194 33.751 31.329 33.751 30.9218C33.7514 30.72 33.7121 30.52 33.6351 30.3334C33.5582 30.1468 33.4452 29.9772 33.3026 29.8343C33.16 29.6915 32.9906 29.5781 32.8042 29.5008C32.6177 29.4234 32.4179 29.3836 32.216 29.3836C32.0139 29.3832 31.8137 29.4227 31.6269 29.4998C31.44 29.577 31.2703 29.6903 31.1274 29.8332C30.9845 29.9761 30.8712 30.1459 30.794 30.3327C30.7169 30.5195 30.6774 30.7197 30.6778 30.9218Z" fill="#2350C6"></path><path fill-rule="evenodd" clip-rule="evenodd" d="M47.5509 11.7605L48.6364 8.38545L49.7186 11.7605H47.5509ZM49.7764 4.81445H46.9504L43.418 15.8518H46.2439L46.7834 14.169H50.4957L51.032 15.8518H53.858L50.3127 4.81445H49.7764Z" fill="#2350C6"></path><path fill-rule="evenodd" clip-rule="evenodd" d="M54.457 15.8498H56.8302V4.8125H54.457V15.8498Z" fill="#2350C6"></path><path fill-rule="evenodd" clip-rule="evenodd" d="M116 7.95639H113.004L110.92 11.2191V4.8125H108.547V15.8498H110.92V12.5871L113.004 15.8498H116L113.476 11.9031L116 7.95639Z" fill="#2350C6"></path><path fill-rule="evenodd" clip-rule="evenodd" d="M62.9573 13.5906C62.6189 13.5957 62.2866 13.4999 62.0027 13.3155C61.7189 13.1312 61.4963 12.8665 61.3634 12.5552C61.2305 12.2439 61.1932 11.9001 61.2563 11.5675C61.3195 11.235 61.4801 10.9288 61.7179 10.6878C61.9556 10.4469 62.2597 10.2822 62.5914 10.2146C62.923 10.1471 63.2673 10.1798 63.5803 10.3086C63.8934 10.4373 64.161 10.6563 64.3491 10.9377C64.5373 11.2191 64.6374 11.5501 64.6368 11.8886C64.6394 12.3369 64.464 12.7679 64.1491 13.087C63.8342 13.4061 63.4056 13.5872 62.9573 13.5906ZM62.9573 7.73633C62.2227 7.73746 61.5023 7.93838 60.8732 8.31758V7.94828H58.5V18.9856H60.8732V15.4531C61.5004 15.8391 62.2209 16.0467 62.9573 16.0537C64.0382 16.0236 65.0646 15.5731 65.8185 14.798C66.5723 14.0229 66.9941 12.9843 66.9941 11.903C66.9941 10.8218 66.5723 9.78317 65.8185 9.00805C65.0646 8.23294 64.0382 7.78245 62.9573 7.75238" fill="#2350C6"></path><path fill-rule="evenodd" clip-rule="evenodd" d="M99.4945 7.22099V4.8125H91.9961V7.22099H94.5587V15.8466H96.9351V7.22099H99.4945Z" fill="#2350C6"></path><path fill-rule="evenodd" clip-rule="evenodd" d="M77.9332 11.0154C78.0987 10.6105 78.381 10.264 78.7442 10.0201C79.1074 9.77623 79.5349 9.64599 79.9724 9.64599C80.4098 9.64599 80.8374 9.77623 81.2006 10.0201C81.5637 10.264 81.8461 10.6105 82.0116 11.0154H77.9332ZM79.9627 7.73666C79.2105 7.72711 78.4697 7.92214 77.8197 8.30089C77.1696 8.67964 76.6347 9.2279 76.272 9.88706C75.9094 10.5462 75.7327 11.2915 75.7607 12.0434C75.7887 12.7952 76.0205 13.5253 76.4313 14.1556C76.842 14.7859 77.4163 15.2928 78.0928 15.622C78.7693 15.9513 79.5225 16.0906 80.2719 16.025C81.0214 15.9594 81.739 15.6915 82.348 15.2497C82.957 14.808 83.4346 14.2091 83.7296 13.517H81.4817C81.0735 13.9094 80.529 14.1281 79.9627 14.1272C79.5255 14.1254 79.0985 13.9942 78.7357 13.7502C78.3728 13.5061 78.0902 13.1602 77.9236 12.756H83.9641C84.0262 12.47 84.0574 12.1783 84.0572 11.8857C84.064 10.7927 83.6366 9.74164 82.8688 8.96363C82.101 8.18563 81.0558 7.7443 79.9627 7.73666Z" fill="#2350C6"></path><path fill-rule="evenodd" clip-rule="evenodd" d="M101.159 11.0154C101.324 10.6104 101.606 10.264 101.97 10.0201C102.333 9.77619 102.76 9.64595 103.198 9.64595C103.635 9.64595 104.063 9.77619 104.426 10.0201C104.789 10.264 105.072 10.6104 105.237 11.0154H101.159ZM103.198 7.73662C102.446 7.72766 101.705 7.92318 101.056 8.3023C100.406 8.68143 99.8714 9.22991 99.5092 9.88917C99.147 10.5484 98.9707 11.2937 98.9991 12.0454C99.0275 12.797 99.2595 13.5269 99.6704 14.1569C100.081 14.787 100.656 15.2935 101.332 15.6226C102.009 15.9516 102.762 16.0906 103.511 16.0249C104.26 15.9592 104.978 15.6912 105.587 15.2495C106.196 14.8078 106.673 14.209 106.968 13.517H104.72C104.311 13.9115 103.763 14.1304 103.195 14.1272C102.758 14.1249 102.332 13.9939 101.97 13.7506C101.608 13.5072 101.326 13.1623 101.159 12.7591H107.196C107.258 12.4732 107.289 12.1815 107.289 11.8889C107.293 11.3474 107.19 10.8104 106.986 10.3087C106.783 9.80699 106.482 9.3503 106.102 8.96473C105.722 8.57915 105.269 8.27225 104.77 8.06153C104.272 7.85081 103.736 7.74041 103.195 7.73662H103.198Z" fill="#2350C6"></path><path fill-rule="evenodd" clip-rule="evenodd" d="M92.1689 11.2117C92.1829 10.7523 92.1046 10.2947 91.9385 9.86611C91.7724 9.43753 91.5219 9.04666 91.2019 8.71671C90.8818 8.38675 90.4988 8.12442 90.0755 7.94528C89.6522 7.76614 89.1972 7.67383 88.7376 7.67383C88.2779 7.67383 87.823 7.76614 87.3997 7.94528C86.9764 8.12442 86.5933 8.38675 86.2733 8.71671C85.9533 9.04666 85.7028 9.43753 85.5367 9.86611C85.3706 10.2947 85.2922 10.7523 85.3063 11.2117V15.8457H87.673V11.2374C87.6651 11.0935 87.6866 10.9496 87.7362 10.8143C87.7858 10.679 87.8624 10.5553 87.9615 10.4507C88.0605 10.346 88.1798 10.2627 88.3122 10.2057C88.4445 10.1487 88.5871 10.1194 88.7312 10.1194C88.8753 10.1194 89.0178 10.1487 89.1502 10.2057C89.2825 10.2627 89.4018 10.346 89.5009 10.4507C89.5999 10.5553 89.6766 10.679 89.7261 10.8143C89.7757 10.9496 89.7972 11.0935 89.7893 11.2374V15.8617H92.1689V11.2117Z" fill="#2350C6"></path><path fill-rule="evenodd" clip-rule="evenodd" d="M74.9304 10.2751C74.9306 10.1902 74.9241 10.1053 74.9111 10.0214C74.9111 9.9925 74.9111 9.97002 74.9111 9.94433C74.9111 9.91864 74.895 9.8512 74.8822 9.80624C74.5771 8.62448 73.1545 7.72852 71.4397 7.72852C69.7248 7.72852 68.3054 8.62448 68.0035 9.80624C68.0035 9.8512 67.9811 9.89616 67.9714 9.94433C67.9618 9.9925 67.9714 9.9925 67.9714 10.0214C67.9584 10.1053 67.9519 10.1902 67.9522 10.2751C67.9522 10.36 67.9586 10.4448 67.9714 10.5288C67.9714 10.5545 67.9714 10.577 67.9714 10.6027C67.9714 10.6283 67.9907 10.6958 68.0035 10.7439C68.3054 11.9225 69.728 12.8185 71.4397 12.8185C71.9695 12.8185 72.4031 13.1396 72.4031 13.5121C72.4031 13.8975 71.976 14.2058 71.4397 14.2058C70.9034 14.2058 70.4763 13.8846 70.4763 13.5121H67.9297C67.9296 13.597 67.936 13.6819 67.949 13.7658C67.949 13.7915 67.949 13.8172 67.949 13.8429C67.949 13.8686 67.9682 13.936 67.9811 13.981C68.2829 15.1627 69.7056 16.0587 71.4172 16.0587C73.1288 16.0587 74.5547 15.1627 74.8597 13.981C74.8597 13.936 74.879 13.8878 74.8886 13.8429C74.8983 13.7979 74.8886 13.7915 74.8886 13.7658C74.9015 13.6819 74.908 13.597 74.9079 13.5121C74.908 13.4272 74.9015 13.3424 74.8886 13.2584C74.8886 13.2327 74.8886 13.207 74.8886 13.1846C74.8886 13.1621 74.8726 13.0882 74.8597 13.0433C74.5547 11.8615 73.132 10.9687 71.4172 10.9687C70.8905 10.9687 70.4538 10.6476 70.4538 10.2751C70.4538 9.88974 70.8809 9.58145 71.4172 9.58145C71.9535 9.58145 72.3806 9.90258 72.3806 10.2751H74.9272H74.9304Z" fill="#2350C6"></path><path fill-rule="evenodd" clip-rule="evenodd" d="M64.1116 25.1286H66.0031V24.1395H64.1116V25.1286ZM66.4013 27.9867C66.5137 27.9867 66.5458 27.8711 66.5587 27.0875C66.7911 27.245 67.0484 27.3623 67.3198 27.4344C67.2459 28.4973 67.034 28.7928 66.4977 28.7928H65.9967C65.3255 28.7928 65.181 28.5294 65.181 27.7362V25.9122H64.7828C64.6833 27.2224 64.4135 28.2789 63.1547 28.9116C63.0192 28.6461 62.8388 28.406 62.6216 28.2019C63.6621 27.7138 63.8355 26.9173 63.9061 25.9122H63.235V23.3431H64.0121C63.8598 22.9399 63.666 22.5536 63.4341 22.1903L64.1919 21.8691C64.4771 22.2659 64.7102 22.6976 64.8856 23.1537L64.3975 23.372H65.2484C65.4773 22.8938 65.6663 22.3976 65.8136 21.8884L66.7546 22.1903C66.5683 22.5981 66.3628 23.0188 66.1765 23.372H66.9216V25.9411H66.0481V27.7587C66.0481 27.9899 66.0481 28.0156 66.1605 28.0156L66.4013 27.9867ZM62.8078 27.1261C62.8252 27.4008 62.8704 27.673 62.9427 27.9385C61.6389 28.5808 61.382 28.7446 61.2407 28.8795C61.1651 28.6094 61.0481 28.3526 60.8939 28.1184C61.0011 28.0629 61.0905 27.9784 61.1518 27.8744C61.2132 27.7705 61.244 27.6514 61.2407 27.5307V26.3329H60.3737V25.5301H61.2632V24.7882H60.7783V24.1941C60.7012 24.2918 60.6164 24.3831 60.5246 24.4671C60.4182 24.1647 60.2871 23.8714 60.1328 23.5904C60.6041 23.1083 60.9551 22.5219 61.1572 21.8788L61.9183 22.1196C61.8669 22.2706 61.7963 22.4408 61.7288 22.5949H62.9877V23.4427H61.2985C61.1861 23.6386 61.0577 23.812 60.9389 23.9854H62.8143V24.7818H62.1078V25.5301H62.9138V26.3329H62.1078V27.4568L62.8078 27.1261Z" fill="#2350C6"></path><path fill-rule="evenodd" clip-rule="evenodd" d="M76.9234 26.2297C77.3493 26.7815 77.6853 27.3971 77.9189 28.0538L77.0422 28.4231C76.8349 27.7582 76.525 27.1298 76.1238 26.5605L76.9234 26.2297ZM74.8264 24.9709H76.2041V24.3061H74.8264V24.9709ZM74.8264 23.5836H76.2041V22.9413H74.8264V23.5836ZM75.1957 27.9382C75.5168 27.9382 75.565 27.8258 75.61 27.0775C75.8595 27.2298 76.1332 27.3384 76.4192 27.3987C76.3197 28.468 76.0564 28.7378 75.2728 28.7378H74.0204C73.0249 28.7378 72.7776 28.4744 72.7776 27.6748V26.4642H73.6832V27.6909C73.6832 27.9157 73.7506 27.9478 74.1263 27.9478L75.1957 27.9382ZM72.5367 24.9613H73.9529V24.3061H72.5367V24.9613ZM72.5367 23.574H73.9529V22.9317H72.5367V23.574ZM74.0493 25.7384H71.6922V22.1738H77.0743V25.748H74.2259C74.7349 25.9996 75.2044 26.3241 75.6196 26.7114L74.9773 27.3216C74.5424 26.892 74.0469 26.5284 73.5066 26.2426L74.0493 25.7384ZM70.9375 28.012C71.3083 27.4841 71.5773 26.8917 71.7307 26.2651L72.5432 26.5573C72.382 27.2303 72.1119 27.8725 71.7435 28.4584L70.9375 28.012Z" fill="#2350C6"></path><path fill-rule="evenodd" clip-rule="evenodd" d="M86.2109 24.4715H87.3477V23.1869H86.2013L86.2109 24.4715ZM85.3824 25.2615H88.2469V22.4066H85.3824V25.2615ZM83.5648 27.9365H86.6766V27.4869H83.5648V27.9365ZM83.5648 26.8446H86.6766V26.4143H83.5648V26.8446ZM82.6817 25.7207H87.5982V28.8999H86.6766V28.659H83.5648V28.8999H82.6817V25.7207ZM83.112 23.6108C83.1166 23.5553 83.1166 23.4994 83.112 23.4439V23.1195H82.7331C82.6321 23.2932 82.5161 23.4576 82.3862 23.6108H83.112ZM84.5154 25.6083C84.3034 25.4188 83.8731 25.1105 83.552 24.8761C83.1935 25.3541 82.7149 25.7286 82.1647 25.9615C82.002 25.7374 81.8085 25.5374 81.5898 25.3674C82.3606 25.0688 82.7427 24.6995 82.9322 24.3205H81.6798V23.6044H82.1871C82.0041 23.492 81.7633 23.3539 81.6123 23.2833C82.0147 22.8757 82.3008 22.3679 82.4408 21.8125L83.234 21.9795C83.1891 22.1208 83.1441 22.2717 83.0831 22.4227H84.9521V23.1195H83.9726V23.4406C83.9773 23.4908 83.9773 23.5414 83.9726 23.5916H85.1351V24.2916H83.8795C84.2007 24.4586 84.9521 24.8889 85.148 25.0174L84.5154 25.6083Z" fill="#2350C6"></path><path fill-rule="evenodd" clip-rule="evenodd" d="M98.5174 25.4455C98.8788 26.1684 99.1423 26.9362 99.3009 27.7287L98.3729 28.0145C98.2353 27.2141 97.9979 26.4341 97.6664 25.6927L98.5174 25.4455ZM95.9837 24.0485C96.4104 24.6259 96.7582 25.2577 97.0177 25.9272L96.1667 26.3639C95.9347 25.6808 95.6106 25.0326 95.2033 24.4371L95.9837 24.0485ZM96.5938 27.9021C96.9406 27.9021 97.0016 27.7673 97.0466 26.8906C97.3035 27.0566 97.587 27.1772 97.8848 27.247C97.7627 28.4448 97.5058 28.7692 96.6612 28.7692H95.3767C94.3844 28.7692 94.1275 28.4898 94.1275 27.5842V25.2721H95.0299V27.5617C95.0299 27.8475 95.0973 27.8829 95.4698 27.8829L96.5938 27.9021ZM93.9958 24.3697V23.6214H92.5026V22.7608H93.9958V21.8359H94.8854V22.748H96.7223V21.8359H97.6246V22.748H99.1468V23.6086H97.6246V24.3311H96.7255V23.6214H94.8886V24.3376L93.9958 24.3697ZM92.2617 27.7062C92.6396 27.0309 92.894 26.2936 93.0132 25.529L93.8674 25.7859C93.7277 26.5939 93.4792 27.3792 93.1288 28.1205L92.2617 27.7062Z" fill="#2350C6"></path><path fill-rule="evenodd" clip-rule="evenodd" d="M43.418 25.7885H55.226V25.127H43.418V25.7885Z" fill="#2350C6"></path><path fill-rule="evenodd" clip-rule="evenodd" d="M104.191 25.7885H115.999V25.127H104.191V25.7885Z" fill="#2350C6"></path></svg>